<svg xmlns="http://www.w3.org/2000/svg" viewBox="0 0 900 640" role="img" aria-labelledby="t d">
  <title id="t">Reinserción social y laboral</title>
  <desc id="d">Ilustración referencial de capacitación y reinserción laboral.</desc>
  <defs>
    <linearGradient id="bg" x1="0" y1="0" x2="1" y2="1"><stop offset="0" stop-color="#edf6ff"/><stop offset="1" stop-color="#fff1f6"/></linearGradient>
    <filter id="shadow" x="-20%" y="-20%" width="140%" height="140%"><feDropShadow dx="0" dy="18" stdDeviation="24" flood-color="#0b2f66" flood-opacity="0.13"/></filter>
  </defs>
  <rect width="900" height="640" rx="48" fill="url(#bg)"/>
  <rect x="140" y="126" width="620" height="388" rx="42" fill="#fff" filter="url(#shadow)"/>
  <path d="M256 445V294c0-38 31-69 69-69h250c38 0 69 31 69 69v151" fill="none" stroke="#0b2f66" stroke-width="22" stroke-linecap="round"/>
  <rect x="340" y="188" width="220" height="108" rx="22" fill="#eef5ff" stroke="#0b2f66" stroke-width="16"/>
  <path d="M400 242h100" stroke="#e6005c" stroke-width="14" stroke-linecap="round"/>
  <path d="M202 444h496" stroke="#e6005c" stroke-width="20" stroke-linecap="round" opacity=".78"/>
  <circle cx="308" cy="352" r="32" fill="#0b2f66" opacity=".92"/>
  <circle cx="592" cy="352" r="32" fill="#e6005c" opacity=".88"/>
  <path d="M258 420c28-38 59-57 94-57s66 19 94 57M514 420c28-38 59-57 94-57s66 19 94 57" fill="none" stroke="#0b2f66" stroke-width="15" stroke-linecap="round" opacity=".65"/>
  <text x="662" y="594" font-family="Arial, sans-serif" font-size="20" fill="#0b2f66" opacity=".55">imagen referencial</text>
</svg>
