<svg xmlns="http://www.w3.org/2000/svg" viewBox="0 0 900 640" role="img" aria-labelledby="t d">
  <title id="t">Taller comunitario</title>
  <desc id="d">Ilustración referencial de un taller grupal y comunitario.</desc>
  <defs>
    <linearGradient id="bg" x1="0" y1="0" x2="1" y2="1"><stop offset="0" stop-color="#fff7fb"/><stop offset="1" stop-color="#eef5ff"/></linearGradient>
    <filter id="shadow" x="-20%" y="-20%" width="140%" height="140%"><feDropShadow dx="0" dy="18" stdDeviation="24" flood-color="#0b2f66" flood-opacity="0.12"/></filter>
  </defs>
  <rect width="900" height="640" rx="48" fill="url(#bg)"/>
  <rect x="120" y="120" width="660" height="400" rx="38" fill="#ffffff" filter="url(#shadow)"/>
  <rect x="180" y="172" width="318" height="170" rx="20" fill="#eef5ff"/>
  <path d="M220 294h238M220 244h166M220 202h212" stroke="#0b2f66" stroke-width="14" stroke-linecap="round" opacity=".75"/>
  <circle cx="598" cy="220" r="34" fill="#e6005c" opacity=".9"/>
  <path d="M548 320c24-44 57-66 98-66s73 22 96 66" fill="none" stroke="#0b2f66" stroke-width="18" stroke-linecap="round"/>
  <circle cx="282" cy="420" r="30" fill="#0b2f66" opacity=".9"/>
  <circle cx="404" cy="420" r="30" fill="#e6005c" opacity=".82"/>
  <circle cx="526" cy="420" r="30" fill="#0b2f66" opacity=".9"/>
  <path d="M225 478c38-42 77-63 117-63s79 21 117 63M469 478c38-42 77-63 117-63s79 21 117 63" fill="none" stroke="#0b2f66" stroke-width="14" stroke-linecap="round" opacity=".65"/>
  <text x="662" y="594" font-family="Arial, sans-serif" font-size="20" fill="#0b2f66" opacity=".55">imagen referencial</text>
</svg>
